<?xml version="1.0" encoding="iso-8859-1"?>
<!-- Generator: Adobe Illustrator 19.0.0, SVG Export Plug-In . SVG Version: 6.00 Build 0)  -->
<svg xmlns="http://www.w3.org/2000/svg" xmlns:xlink="http://www.w3.org/1999/xlink" version="1.1" id="Capa_1" x="0px" y="0px" viewBox="0 0 512 512" style="enable-background:new 0 0 512 512;" xml:space="preserve" width="512px" height="512px">
<g>
	<g>
		<path d="M255.188,0C149.208,0,65.001,81.548,38.922,184.383C31.805,212.449,53.513,240,82.814,240    c20.543,0,38.354-13.73,43.313-33.391C143.444,137.952,196.515,90,255.188,90c53.665,0,102.271,39.006,123.828,99.372    c1.736,4.864,1.038,10.058-1.917,14.25c-7.017,9.957-22.244,7.785-26.141-3.279C333.767,151.537,296.175,120,255.188,120    c-28.006,0-55.467,15.37-75.341,42.17c-19.126,25.791-29.659,59.114-29.659,93.83c0,79.444,52.232,136,105,136    c52.766,0,91.166-50.562,101.73-103.04c1.635-8.122-3.623-16.031-11.745-17.666c-8.123-1.637-16.03,3.624-17.665,11.745    c-7.523,37.374-34.629,78.96-72.32,78.96c-39.953,0-75-49.533-75-106c0-56.467,35.047-106,75-106    c28.084,0,54.569,23.673,67.474,60.31c11.934,33.882,57.841,40.561,78.96,10.595c8.523-12.095,10.635-27.655,5.646-41.622    C381.392,106.821,321.697,60,255.188,60c-78.19,0-138.87,62.832-158.15,139.272C95.445,205.589,89.596,210,82.814,210    c-9.677,0-17.134-9.086-14.812-18.243C92.154,96.517,169.127,30,255.188,30c107.523,0,195,101.383,195,226    c0,49.419-14.036,97.991-39.523,136.767c-4.55,6.923-2.627,16.223,4.296,20.773c6.911,4.542,16.216,2.638,20.774-4.296    c28.666-43.613,44.453-98.037,44.453-153.245C480.188,114.841,379.253,0,255.188,0z" fill="#00ffc7"/>
	</g>
</g>
<g>
	<g>
		<path d="M398.642,433.019c-5.643-6.066-15.134-6.409-21.201-0.767C342.454,464.797,300.179,482,255.188,482    c-98,0-181.171-84.961-193.464-197.627c-0.898-8.235-8.294-14.175-16.538-13.285c-8.235,0.898-14.183,8.303-13.284,16.539    C45.858,415.541,141.85,512,255.188,512c51.955,0,102.629-20.521,142.687-57.782C403.94,448.576,404.283,439.085,398.642,433.019z    " fill="#00ffc7"/>
	</g>
</g>
<g>
	<g>
		<path d="M341.204,405.379c-4.651-6.854-13.979-8.641-20.835-3.989C300.501,414.873,277.961,422,255.188,422    c-64.807,0-122.012-59.364-133.063-138.085c-1.151-8.203-8.726-13.919-16.939-12.769c-8.204,1.152-13.921,8.736-12.77,16.94    C104.935,377.254,170.619,452,255.188,452c28.805,0,57.169-8.917,82.027-25.786C344.069,421.562,345.856,412.234,341.204,405.379z    " fill="#00ffc7"/>
	</g>
</g>
<g>
	<g>
		<path d="M405.191,271.145c-8.211-1.148-15.789,4.565-16.94,12.769c-4.219,30.05-15.35,58.936-31.342,81.334    c-4.813,6.742-3.25,16.11,3.492,20.924c6.784,4.845,16.141,3.207,20.924-3.492c18.746-26.256,31.756-59.85,36.635-94.595    C419.111,279.881,413.395,272.297,405.191,271.145z" fill="#00ffc7"/>
	</g>
</g>
<g>
	<g>
		<path d="M255.188,180c-14.501,0-30.544,16.414-39.013,39.915c-2.809,7.793,1.232,16.389,9.026,19.197    c7.792,2.808,16.388-1.234,19.196-9.026c3.259-9.042,7.666-15.048,10.696-18.163c5.542,5.859,15.094,21.177,15.094,44.078    c0,22.658-9.521,37.58-14.99,43.184c-3.032-3.085-7.503-9.125-10.799-18.27c-2.808-7.792-11.403-11.833-19.196-9.026    c-7.794,2.809-11.835,11.404-9.026,19.197c8.468,23.5,24.511,39.914,39.012,39.914c20.383,0,45-33.455,45-75    C300.188,213.901,275.571,180,255.188,180z" fill="#00ffc7"/>
	</g>
</g>
<g>
</g>
<g>
</g>
<g>
</g>
<g>
</g>
<g>
</g>
<g>
</g>
<g>
</g>
<g>
</g>
<g>
</g>
<g>
</g>
<g>
</g>
<g>
</g>
<g>
</g>
<g>
</g>
<g>
</g>
</svg>