<?xml version="1.0" encoding="iso-8859-1"?>
<!-- Generator: Adobe Illustrator 19.0.0, SVG Export Plug-In . SVG Version: 6.00 Build 0)  -->
<svg xmlns="http://www.w3.org/2000/svg" xmlns:xlink="http://www.w3.org/1999/xlink" version="1.1" id="Capa_1" x="0px" y="0px" viewBox="0 0 512 512" style="enable-background:new 0 0 512 512;" xml:space="preserve" width="512px" height="512px">
<g>
	<g>
		<path d="M435.051,130.089c-3.462-10.656-12.5-18.276-23.588-19.887l-89.316-12.979l-39.943-80.933v-0.001    C277.244,6.241,267.204,0,256,0c-11.203,0-21.245,6.241-26.204,16.289l-39.943,80.933l-89.316,12.979    c-11.088,1.61-20.127,9.232-23.589,19.887c-3.463,10.656-0.63,22.134,7.395,29.955l64.629,62.999l-15.258,88.955    c-1.894,11.043,2.561,21.994,11.625,28.579c9.062,6.585,20.855,7.438,30.774,2.225l64.873-34.105v93.6h-63.671    c-19.946,0-36.174,16.228-36.174,36.174v43.502h-19.791c-8.292,0-15.014,6.722-15.014,15.014S113.059,512,121.351,512h269.301    c8.292,0,15.014-6.722,15.014-15.014s-6.722-15.014-15.014-15.014H370.86V438.47c0-19.946-16.228-36.174-36.174-36.174h-63.671    v-93.6l64.873,34.106c4.314,2.268,8.981,3.387,13.625,3.387c6.033,0,12.027-1.891,17.149-5.612    c9.064-6.585,13.518-17.536,11.625-28.579l-15.258-88.955l64.629-62.999C435.681,152.223,438.514,140.745,435.051,130.089z     M334.686,432.324c3.388,0,6.146,2.758,6.146,6.147v43.502H171.169V438.47c0-3.389,2.758-6.147,6.147-6.147H334.686z     M341.765,201.835c-6.888,6.713-10.03,16.382-8.405,25.865l15.053,87.763l-78.817-41.436c-4.257-2.238-8.926-3.357-13.596-3.357    c-4.669,0-9.341,1.119-13.599,3.357l-78.814,41.436l15.053-87.765c1.625-9.482-1.517-19.15-8.404-25.862l-63.763-62.153    l88.117-12.805c9.521-1.382,17.745-7.359,22.002-15.986L256,31.044l39.407,79.848c4.257,8.628,12.482,14.603,22.001,15.986    l88.118,12.805L341.765,201.835z" fill="#00ffc7"/>
	</g>
</g>
<g>
</g>
<g>
</g>
<g>
</g>
<g>
</g>
<g>
</g>
<g>
</g>
<g>
</g>
<g>
</g>
<g>
</g>
<g>
</g>
<g>
</g>
<g>
</g>
<g>
</g>
<g>
</g>
<g>
</g>
</svg>